<svg xmlns="http://www.w3.org/2000/svg" xmlns:xlink="http://www.w3.org/1999/xlink" width="180" height="64" viewBox="0 0 180 64"><defs><style>.cls-1{fill:#0c0d0c;}.cls-2,.cls-4{fill:#76102b;}.cls-3{fill:#eb2136;}.cls-3,.cls-4,.cls-5,.cls-6{fill-rule:evenodd;}.cls-5{fill:#fff;}.cls-6{fill:url(#linear-gradient);}</style><linearGradient id="linear-gradient" x1="160.41" y1="53.95" x2="168.71" y2="48.03" gradientUnits="userSpaceOnUse"><stop offset="0" stop-color="#696969"/><stop offset="0.13" stop-color="#8b8b8b"/><stop offset="0.32" stop-color="#b4b4b4"/><stop offset="0.51" stop-color="#d5d5d5"/><stop offset="0.69" stop-color="#ececec"/><stop offset="0.86" stop-color="#fafafa"/><stop offset="1" stop-color="#fff"/></linearGradient></defs><g id="Hukoomi_logos" data-name="Hukoomi logos"><g id="P8"><path class="cls-1" d="M10.58,45.37v1.11h1.08V45.37Zm-1.88,0v1.11H9.79V45.37Z"/><path class="cls-1" d="M15.09,53.81v1.1h1.08v-1.1Zm-1.88,0v1.1H14.3v-1.1Z"/><path class="cls-1" d="M19.27,46.24v1.09h1.09V46.24Z"/><path class="cls-1" d="M19.26,48.25v2.32a2.11,2.11,0,0,1-.08.71.7.7,0,0,1-.7.34H16a1.86,1.86,0,0,0,.25-1.15V48.25H15.12v2.28a1.81,1.81,0,0,1-.12.74.71.71,0,0,1-.68.35H12.87c-.74,0-1.12-.43-1.12-1.2V47.28H9.31c-1.27,0-2.05.92-2.05,2.41A2.07,2.07,0,0,0,9.31,52a1.53,1.53,0,0,0,1.27-.75,1.84,1.84,0,0,0,1.79,1.47h6.34c1.1,0,1.66-.59,1.66-1.79v-2.7Zm-8.65,1.33c0,.84-.44,1.52-1.16,1.52s-1.1-.66-1.1-1.42c0-.92.49-1.54,1.26-1.54h1Z"/><path class="cls-1" d="M25.58,52.6c0,1.18-.71,1.78-2.15,1.78V53.5c.7,0,1-.49,1.06-1.26a1.11,1.11,0,0,1-1,.5,2.26,2.26,0,1,1,2.14-2.23Zm-1.14-2.07c0-.77-.41-1.29-1.05-1.29s-1,.57-1,1.24a1.13,1.13,0,0,0,1,1.26A1.09,1.09,0,0,0,24.44,50.53Z"/><path class="cls-1" d="M32,46.22v1.1H33v-1.1Zm-1.89,0v1.1h1.09v-1.1Z"/><path class="cls-1" d="M44.71,46.35V51c0,1.2-.56,1.79-1.67,1.79H28.73c-.17,1.07-1.07,1.64-2.41,1.64v-1c.92,0,1.37-.45,1.37-1.4V48.25H28.8v3.37h2.35a.69.69,0,0,0,.67-.35,1.65,1.65,0,0,0,.12-.74V48.25H33v2.22a1.94,1.94,0,0,1-.24,1.15h7A2.43,2.43,0,0,0,39.29,50a2.09,2.09,0,0,0-1.72-.75H35.29l2-2.94h1.31l-1.33,1.9h.48A3.15,3.15,0,0,1,41,51.62h1.81a.71.71,0,0,0,.71-.34,2.53,2.53,0,0,0,.07-.71V46.35Z"/><path class="cls-1" d="M50.43,46.35v4.84a1.54,1.54,0,0,1-1.74,1.55h-3V51.61h1.52L46,47.05h1.17l1.24,4.56a.93.93,0,0,0,.67-.21,1.33,1.33,0,0,0,.28-1V46.35ZM47.5,54.77H45.78v-.45h.4a1.87,1.87,0,0,1-.09-.35.8.8,0,0,1,.77-.82.67.67,0,0,1,.63.45l-.36.17a.25.25,0,0,0-.28-.21.36.36,0,0,0-.33.38.41.41,0,0,0,.18.38h.8Z"/><path class="cls-1" d="M52.57,52.74h-1.1v-6.4h1.1Z"/><path class="cls-1" d="M72.7,46.21V47.3h1.08V46.21Zm-1.88,0V47.3H71.9V46.21Z"/><path class="cls-1" d="M72.31,48.14a2.17,2.17,0,0,0-2.24,2.3,2.53,2.53,0,0,0,.28,1.18H67.91c0-2.26-.9-3.4-2.57-3.4a3.7,3.7,0,0,0-2.93,1.72l.14-3.59H61.46v5.27h-3.3V48.25h-1.1V52a1.23,1.23,0,0,1-1.39,1.4v1c1.36,0,2.25-.57,2.42-1.64H72.31a2.16,2.16,0,0,0,2.22-2.27A2.21,2.21,0,0,0,72.31,48.14Zm-5.56,3.48H62.32c.65-1.39,1.81-2.41,2.91-2.41,1,0,1.53.82,1.53,2.09C66.76,51.4,66.76,51.5,66.75,51.62Zm5.58.1a1.19,1.19,0,0,1-1.12-1.3c0-.77.42-1.27,1.06-1.27a1.18,1.18,0,0,1,1.11,1.32A1.11,1.11,0,0,1,72.33,51.72Z"/><path class="cls-1" d="M80.86,45.37v1.11h1.08V45.37Zm-1.88,0v1.11h1.09V45.37Z"/><path class="cls-1" d="M87.12,49a2.17,2.17,0,0,0-2.24,2.28,2.11,2.11,0,0,0,0,.26v.06H83.14c-.74,0-1.11-.43-1.11-1.2V47.28H79.59c-1.27,0-2.06.92-2.06,2.41A2.08,2.08,0,0,0,79.59,52a1.53,1.53,0,0,0,1.27-.75,1.83,1.83,0,0,0,1.78,1.47h2.69a2.09,2.09,0,0,0,1.79.89,2.17,2.17,0,0,0,2.22-2.3A2.2,2.2,0,0,0,87.12,49Zm-6.23.56c0,.84-.44,1.52-1.17,1.52s-1.09-.66-1.09-1.42c0-.92.47-1.54,1.25-1.54h1Zm6.26,3A1.2,1.2,0,0,1,86,51.28,1.13,1.13,0,0,1,87.09,50a1.18,1.18,0,0,1,1.11,1.31C88.2,52.09,87.77,52.6,87.15,52.6Z"/><path class="cls-1" d="M108.67,48.79a3.31,3.31,0,0,0-1.9-.54,3.41,3.41,0,0,0-1.31.27,3.86,3.86,0,0,0-1.06.71c.25.38.43.66.54.86a2.5,2.5,0,0,1,.89-.62,2.31,2.31,0,0,1,.83-.18,2.07,2.07,0,0,1,1.71.75,2.47,2.47,0,0,1,.51,1.58h-6.61A3.16,3.16,0,0,0,99,48.25h-.48l1.34-1.9H98.5l-2,2.94h2.29a2.07,2.07,0,0,1,1.71.75,2.38,2.38,0,0,1,.54,1.58H94.56V50.47a2.07,2.07,0,0,0-2.06-2.24,2.13,2.13,0,0,0-2.22,2.21,2.22,2.22,0,0,0,2.17,2.3h1.06a1,1,0,0,1-1.1.77v.87c1.29,0,2-.54,2.16-1.64h15.51v-.69A3.61,3.61,0,0,0,108.67,48.79ZM93.45,51.62h-1a1.16,1.16,0,0,1-1.06-1.24,1,1,0,0,1,1.07-1.12,1,1,0,0,1,1,1Z"/><path class="cls-1" d="M19.92,38v3.21h3.17V38Zm-5.46,0v3.21h3.18V38Z"/><path class="cls-1" d="M33.3,30h0Z"/><path class="cls-1" d="M43.73,19.18a6.32,6.32,0,0,0-6.53,6.64,6.81,6.81,0,0,0,0,.78l0,.15H33c-1.65,0-2.78-.84-4-3a6.18,6.18,0,0,0-5.72-3.44H22v2.95a3,3,0,0,1,.52,0,2.8,2.8,0,0,1,2.92,3.06c0,2.95-2.84,5.43-6.59,5.43-4.19,0-6.79-2.8-6.79-7.28V21.57H8.82v3.24a9.86,9.86,0,0,0,9.94,10c4.71,0,8.58-2.84,9.51-7.34,1.21,1.82,2.16,2.43,5,2.52h5.19a6.15,6.15,0,0,0,5.24,2.58,6.33,6.33,0,0,0,6.47-6.67A6.43,6.43,0,0,0,43.73,19.18Zm.08,10.42c-1.93,0-3.29-1.64-3.29-3.81s1.3-3.7,3.12-3.7,3.23,1.65,3.23,3.85S45.6,29.6,43.81,29.6Z"/><path class="cls-1" d="M106.59,18.51a10,10,0,0,0-9.36-.78,10.84,10.84,0,0,0-3.09,2.06c.72,1.09,1.24,1.92,1.56,2.53a7,7,0,0,1,2.6-1.81,6.2,6.2,0,0,1,2.42-.55,6.06,6.06,0,0,1,5,2.19,7.14,7.14,0,0,1,1.49,4.6H87.9c-.26-4-1.71-6.82-4.34-8.44a10,10,0,0,0-5.28-1.39H76.86l3.9-5.51H76.92L71.23,20H77.9a6.13,6.13,0,0,1,5,2.19,7,7,0,0,1,1.56,4.6h-19V23.39c0-3.78-2.48-6.5-6-6.5a6.23,6.23,0,0,0-6.48,6.42A6.47,6.47,0,0,0,59.27,30h3.09a3,3,0,0,1-3.2,2.23v2.55c3.75,0,5.86-1.59,6.29-4.78h45.24V28C110.69,23.48,109.33,20.33,106.59,18.51ZM62.18,26.75H59.33a3.37,3.37,0,0,1-3.1-3.62,3,3,0,0,1,3.13-3.26c1.67,0,2.65,1.21,2.82,2.91Z"/><path class="cls-2" d="M150.67,50.54a27.23,27.23,0,0,1-9.44,2.14c-5.77.06-11.72-2.16-13.17-10.91a17.2,17.2,0,0,1,4-14.66c.27-.36.33-.47.83-.09,4.89,3.38,10.61,2.65,20.12,2.64s10.6,7.42,10.6,7.42l.09.47A9.08,9.08,0,0,1,165.13,39c.27-5.67-.77-14.47-14.14-14-8.22-.15-14.78.36-16.63-.47a14.94,14.94,0,0,1,2.36-2.15c1.71-1.38,2.3-.3,3.69,1.06.13-.22.39-.68-.29-3-.21-.71.62-.91,2.48-2.05a51.84,51.84,0,0,1,6.85-3.26c2.81-1.19.69-.32,9.89-4,1-.39,1.08-1.24,2-4,.31-.93-.34-.79-1.25-.92-9.05-1.3-19.81-1.46-25.71-1.53-3.46-.09-4.48.83-5.43,1.39a5.19,5.19,0,0,0-2.27,2.46c-.06.52-.58,4.23,1.75,5.83,1.13.74,4.09,2.64,6.85,4.41.31.19.49.3.26.64a16.26,16.26,0,0,0-3.1,3.45c-.12.21-.49.77-1,.49S130,22.7,128.72,22A4.62,4.62,0,0,0,130,24.49c.41.4.78.66.19,1.51-1.66,1.88-4.35,9.11-4.18,14.88.41,13.44,9.65,17.24,15.26,17.24,5.06,0,9.37-2.43,12.9-4.86A9.31,9.31,0,0,1,150.67,50.54ZM130.16,11.17c-.47-.35-.76-.49-.94-.61-.43-.31-.15-.7.37-.78s2.71-.71,10-.42c3.46.09,8.28.51,9.92.68.69.09.89.24.94.31-1.72,1.35-6.59,3.2-9,4.89-2.63,1.5-2.78,2.36-4,1.25C136.06,15.28,132.46,12.64,130.16,11.17Z"/><path class="cls-3" d="M157.89,36.4A7.58,7.58,0,1,1,150.31,44,7.58,7.58,0,0,1,157.89,36.4Z"/><path class="cls-4" d="M172.74,49.59l-15.23-6.73,7.2,16.49,1.82-4.54,3.4,3.29,2.67-2.65L169,52.2Z"/><polygon class="cls-5" points="159.21 44.74 170.77 49.75 167.39 51.94 170.77 55.49 169.79 56.52 166.19 53.05 164.61 56.52 159.21 44.74"/><polygon class="cls-6" points="160.02 45.56 164.58 55.36 166.03 52.29 169.75 55.97 170.22 55.49 166.79 51.77 169.75 49.84 160.02 45.56"/></g></g></svg>